HIERARCHY
ROOT Hips
{
	OFFSET -3.958830 18.904000 13.208200
	CHANNELS 6 Xposition Yposition Zposition Zrotation Yrotation Xrotation 
	JOINT LHipJoint
	{
		OFFSET 0.000000 0.000000 0.000000
		CHANNELS 3 Zrotation Yrotation Xrotation
		JOINT LeftUpLeg
		{
			OFFSET 1.800000 -1.400000 0.085000
			CHANNELS 3 Zrotation Yrotation Xrotation
			JOINT LeftLeg
			{
				OFFSET 2.215000 -6.000000 0.000000
				CHANNELS 3 Zrotation Yrotation Xrotation
				JOINT LeftFoot
				{
					OFFSET 2.500000 -6.900000 0.000000
					CHANNELS 3 Zrotation Yrotation Xrotation
					JOINT LeftToeBase
					{
						OFFSET 0.200000 -0.500000 1.950000
						CHANNELS 3 Zrotation Yrotation Xrotation
						End Site
						{
							OFFSET 0.000000 0.000000 0.000000
						}
					}
				}
			}
		}
	}
	JOINT RHipJoint
	{
		OFFSET 0.000000 0.000000 0.000000
		CHANNELS 3 Zrotation Yrotation Xrotation
		JOINT RightUpLeg
		{
			OFFSET -1.800000 -1.400000 0.085000
			CHANNELS 3 Zrotation Yrotation Xrotation
			JOINT RightLeg
			{
				OFFSET -2.215000 -6.000000 0.000000
				CHANNELS 3 Zrotation Yrotation Xrotation
				JOINT RightFoot
				{
					OFFSET -2.500000 -6.900000 0.000000
					CHANNELS 3 Zrotation Yrotation Xrotation
					JOINT RightToeBase
					{
						OFFSET -0.200000 -0.500000 1.950000
						CHANNELS 3 Zrotation Yrotation Xrotation
						End Site
						{
							OFFSET 0.000000 0.000000 0.000000
						}
					}
				}
			}
		}
	}
	JOINT LowerBack
	{
		OFFSET 0.000000 0.000000 0.000000
		CHANNELS 3 Zrotation Yrotation Xrotation
		JOINT Spine
		{
			OFFSET -0.087000 1.940000 -0.288900
			CHANNELS 3 Zrotation Yrotation Xrotation
			JOINT Spine1
			{
				OFFSET 0.000000 1.950000 0.060000
				CHANNELS 3 Zrotation Yrotation Xrotation
				JOINT Neck
				{
					OFFSET 0.000000 0.000000 0.000000
					CHANNELS 3 Zrotation Yrotation Xrotation
					JOINT Neck1
					{
						OFFSET 0.000000 1.600000 0.340000
						CHANNELS 3 Zrotation Yrotation Xrotation
						JOINT Head
						{
							OFFSET 0.000000 1.667000 -0.240000
							CHANNELS 3 Zrotation Yrotation Xrotation
							End Site
							{
								OFFSET 0.000000 0.000000 0.000000
							}
						}
					}
				}
				JOINT LeftShoulder
				{
					OFFSET 0.000000 0.000000 0.000000
					CHANNELS 3 Zrotation Yrotation Xrotation
					JOINT LeftArm
					{
						OFFSET 2.700000 1.550000 -0.730000
						CHANNELS 3 Zrotation Yrotation Xrotation
						JOINT LeftForeArm
						{
							OFFSET 5.450000 0.000000 0.000000
							CHANNELS 3 Zrotation Yrotation Xrotation
							JOINT LeftHand
							{
								OFFSET 3.450000 0.000000 0.000000
								CHANNELS 3 Zrotation Yrotation Xrotation
								JOINT LeftHandIndex1
								{
									OFFSET 0.750000 0.000000 0.000000
									CHANNELS 3 Zrotation Yrotation Xrotation
									End Site
									{
										OFFSET 0.000000 0.000000 0.000000
									}
								}
							}
						}
					}
				}
				JOINT RightShoulder
				{
					OFFSET 0.000000 0.000000 0.000000
					CHANNELS 3 Zrotation Yrotation Xrotation
					JOINT RightArm
					{
						OFFSET -2.700000 1.550000 -0.730000
						CHANNELS 3 Zrotation Yrotation Xrotation
						JOINT RightForeArm
						{
							OFFSET -5.450000 0.000000 0.000000
							CHANNELS 3 Zrotation Yrotation Xrotation
							JOINT RightHand
							{
								OFFSET -3.450000 0.000000 0.000000
								CHANNELS 3 Zrotation Yrotation Xrotation
								JOINT RightHandIndex1
								{
									OFFSET -0.750000 0.000000 0.000000
									CHANNELS 3 Zrotation Yrotation Xrotation
									End Site
									{
										OFFSET 0.000000 0.000000 0.000000
									}
								}
							}
						}
					}
				}
			}
		}
	}
}
MOTION
Frames: 8
Frame Time: 0.016667
1.022850 17.251250 -11.090880 0.882010 20.089183 -0.670498 -15.211736 12.290071 3.139161 -4.170160 0.804522 -0.478521 -8.878673 4.839348 2.716770 -0.410060 4.552475 3.285190 0.387310 0.030070 0.292230 18.439574 -10.593876 3.268447 4.021102 1.394892 -12.694367 8.905730 -3.436806 0.543017 -0.243983 -3.162570 3.278439 0.182410 0.531530 0.459380 -4.108576 -0.156604 -7.770091 10.365359 -3.066128 8.915504 -4.133644 -2.995749 12.651958 2.985847 2.459989 -12.582250 4.430075 -2.226901 26.253084 -5.074680 -0.719420 -7.389930 -5.611524 -17.258214 8.036250 -3.011270 -2.216015 0.439559 14.172757 -11.021726 -1.430898 -4.264525 2.917640 0.333040 0.389360 -0.128780 0.256120 -0.216028 17.192400 6.483997 21.049136 18.161951 -6.841143 -18.019748 54.321502 -9.116727 1.512743 -1.563676 -0.223960 0.253740 0.078940 -0.133060 
0.969020 17.262410 -11.121910 0.960935 19.031136 -0.527843 -15.238685 12.342253 3.172569 -3.918606 0.762442 -0.657531 -9.270775 4.804298 2.111607 -0.377980 4.544808 3.283739 0.381840 0.019770 0.290400 18.406771 -10.537922 3.264608 3.785104 1.391479 -12.813314 8.852290 -3.384382 0.267179 -0.246582 -3.126775 3.287516 0.159960 0.512810 0.463040 -3.991836 -0.352333 -7.805339 9.381904 -2.947573 9.264986 -3.673159 -2.905078 12.338003 2.823183 2.385235 -12.765554 4.206260 -2.006751 26.748384 -4.849910 -0.497310 -7.271990 -6.117873 -17.430640 8.161393 -2.992589 -1.858787 0.314446 14.663256 -10.713530 -1.447017 -4.242888 2.942242 0.341740 0.370950 -0.115650 0.253970 0.598341 17.446820 6.629814 20.517514 17.329963 -7.159685 -19.271885 53.287304 -9.370579 1.538244 -1.550410 -0.209920 0.230480 0.073320 -0.130890 
0.912930 17.274300 -11.152050 0.903906 17.606520 -0.384041 -15.255822 12.358643 3.207910 -3.538299 0.703969 -0.786655 -9.776330 4.734084 1.207492 -0.360823 4.563829 3.285206 0.377730 0.005550 0.292080 18.386808 -10.505730 3.252032 3.638536 1.405175 -12.982091 8.643980 -3.341553 0.203252 -0.242124 -3.090170 3.304246 0.147010 0.511770 0.458820 -3.901833 -0.449599 -7.826877 8.582530 -2.617737 9.454473 -3.157981 -2.632738 12.101798 2.681341 2.310539 -12.873320 4.040106 -1.735954 27.095019 -4.599240 -0.269570 -7.075630 -6.436226 -17.436747 8.174118 -3.244698 -1.613445 0.198695 15.158207 -10.909581 -1.502338 -4.223336 2.949840 0.353860 0.362340 -0.113530 0.258470 1.225166 17.598116 6.754135 20.128396 16.848585 -7.216342 -20.339198 51.589024 -9.411270 1.558800 -1.538853 -0.214960 0.228830 0.068430 -0.133250 
0.859180 17.291000 -11.182350 0.589962 15.866509 -0.421353 -15.256373 12.369657 3.233854 -3.088229 0.640739 -0.798725 -9.837151 4.589593 0.310041 -0.335411 4.535647 3.293062 0.390700 0.020300 0.298830 18.381429 -10.487448 3.256145 3.476185 1.376545 -12.862075 8.608875 -3.309356 -0.039496 -0.256317 -3.077604 3.309424 0.141260 0.492430 0.454730 -3.858522 -0.507407 -7.862917 8.354609 -2.299387 9.835008 -2.737818 -2.315162 11.748793 2.492021 2.025860 -12.882686 3.530771 -1.353560 27.514192 -4.108260 -0.099870 -7.344600 -6.801135 -17.231216 8.157277 -3.562530 -0.887521 0.064830 15.280621 -12.059369 -1.553285 -4.166209 2.975325 0.364880 0.338570 -0.096430 0.264400 1.995678 17.720266 6.751627 19.468659 16.533402 -7.272621 -21.127639 50.183006 -9.344579 1.590626 -1.531612 -0.201620 0.219490 0.052610 -0.128720 
0.809860 17.302880 -11.204420 0.076561 13.816553 -0.278223 -15.243273 12.346744 3.245582 -2.573903 0.540998 -0.914000 -9.822132 4.416269 -0.640356 -0.327941 4.514597 3.300427 0.393150 0.016920 0.299820 18.394145 -10.476548 3.269248 3.379358 1.375110 -12.771443 8.658246 -3.263300 -0.478344 -0.261201 -3.087731 3.306889 0.134480 0.485190 0.452980 -3.855957 -0.486528 -7.882278 8.540771 -1.898730 9.756277 -2.407438 -1.928087 11.366614 2.383761 1.704792 -12.823631 2.992629 -0.990232 27.702131 -3.933240 0.116270 -7.171490 -7.145778 -16.861716 8.080394 -4.080035 -0.194342 -0.041528 15.511864 -13.082699 -1.620425 -4.131575 3.004433 0.369110 0.330110 -0.097330 0.264970 2.580176 17.695863 6.702756 18.776048 16.394922 -7.072629 -21.353736 48.679549 -8.978659 1.616933 -1.539188 -0.198610 0.207250 0.048590 -0.130360 
0.765910 17.310940 -11.230320 -0.947868 12.100453 -0.299422 -15.197354 12.309412 3.211840 -1.665649 0.393032 -1.120689 -9.528328 4.272474 -1.181713 -0.340777 4.489989 3.315659 0.390230 0.012350 0.285910 18.438690 -10.490495 3.308517 3.450257 1.379027 -12.470437 8.894438 -3.220209 -1.109955 -0.263681 -3.143276 3.301769 0.136830 0.496480 0.442110 -3.957855 -0.375879 -7.891386 9.802528 -1.823567 9.570336 -2.599146 -1.744463 11.299335 2.360266 1.362627 -12.785992 2.464267 -0.629636 27.638593 -3.773360 0.233050 -6.676060 -7.222880 -16.553635 8.062183 -4.710183 0.474816 -0.130336 15.845342 -13.812213 -1.693870 -4.115321 3.025014 0.363360 0.336590 -0.116480 0.271850 2.681222 17.640125 6.688944 18.323497 16.640982 -6.702038 -21.986412 46.303694 -8.717062 1.637092 -1.555225 -0.208340 0.207100 0.048620 -0.129860 
0.720330 17.314470 -11.254770 -1.596073 10.811411 -0.076841 -15.166840 12.272711 3.169394 -1.193837 0.253360 -1.560624 -9.068720 4.132329 -1.420768 -0.360314 4.438366 3.347514 0.383070 0.010080 0.269810 18.469628 -10.500268 3.334141 2.999313 1.350031 -12.261707 9.136222 -3.138249 -2.009214 -0.267022 -3.215019 3.290269 0.142750 0.524720 0.437330 -4.024348 -0.280334 -7.867115 10.429682 -1.749144 9.125401 -2.606368 -1.671594 11.304861 2.311548 1.156232 -12.704157 2.174517 -0.335444 27.288941 -3.770090 0.382330 -6.148150 -7.064105 -16.184813 8.009213 -5.406258 0.807944 -0.168570 16.119539 -14.144897 -1.744156 -4.124379 3.030436 0.346710 0.357130 -0.136510 0.282910 2.620484 17.403554 6.615628 18.038489 17.154512 -6.103019 -22.481621 43.491514 -8.363030 1.663050 -1.572500 -0.219140 0.217680 0.049160 -0.121560 
0.673230 17.315530 -11.283140 -2.040496 9.824630 0.172393 -15.143272 12.238744 3.120637 -0.824786 0.113353 -2.136586 -8.720184 4.037935 -1.374349 -0.396228 4.394785 3.370654 0.380900 0.016570 0.254050 18.491962 -10.517843 3.346672 2.181362 1.306683 -12.073367 9.348489 -3.066099 -2.819697 -0.272143 -3.304194 3.266031 0.160450 0.557120 0.440000 -4.074407 -0.181154 -7.821508 10.727816 -1.689551 8.735166 -2.579668 -1.647658 11.445177 2.270511 1.061200 -12.562498 2.102596 0.052106 26.651291 -3.762520 0.633180 -5.895430 -6.653696 -15.736955 7.877405 -5.968305 0.800335 -0.118721 16.116961 -14.247734 -1.764746 -4.154222 3.030402 0.327880 0.384910 -0.156560 0.292220 2.322327 17.005391 6.500273 18.029070 17.884832 -5.423480 -23.081226 40.480119 -8.102718 1.682286 -1.594394 -0.230390 0.231890 0.056400 -0.114920 
